PathFileType	4	(X/Y/Z)	D:\Share\Shared_Data\Ergonomics\Sit To Stand Pertubation\S3\Perturbed.trc
DataRate	CameraRate	NumFrames	NumMarkers	Units	OrigDataRate	OrigDataStartFrame	OrigNumFrames	
100	100	9	18	m	100	4003	231
Frame#	Time	R_ASIS			R_Pelvis			V_Sacral			L_Pelvis			L_ASIS			Clavical			R_Acromium			L_Acromium			Sternum			Torso			R_Thigh_Med			R_Thigh_Lat			R_Thigh			R_Shank_Med			R_Shank_Lat			R_Shank			R_Heel			R_Toe			
		X1	Y1	Z1	X2	Y2	Z2	X3	Y3	Z3	X4	Y4	Z4	X5	Y5	Z5	X6	Y6	Z6	X7	Y7	Z7	X8	Y8	Z8	X9	Y9	Z9	X10	Y10	Z10	X11	Y11	Z11	X12	Y12	Z12	X13	Y13	Z13	X14	Y14	Z14	X15	Y15	Z15	X16	Y16	Z16	X17	Y17	Z17	X18	Y18	Z18	

4003	40.02	0.39667899	0.94483417	0.14939426	0.27997672	0.94706494	0.18896359	0.18934021	0.96858246	-0.0089985352	0.31933725	0.9565506	-0.19636414	0.42093301	0.93571552	-0.13715131	0.37589853	1.3722587	0.0096678019	0.30883249	1.4237543	0.1769231	0.333444	1.4318827	-0.14673743	0.40454025	1.2966984	0.01434405	0.38490628	1.359642	-0.055379498	0.34430347	0.46000919	0.048328011	0.31835501	0.45707678	0.15202867	0.41564566	0.65325891	0.11577412	0.28578333	0.10481107	0.10024266	0.26456754	0.097104553	0.17915013	0.26139423	0.28616333	0.17978151	0.20958923	0.049873749	0.13338322	0.42942578	0.054239902	0.13674193
4004	40.03	0.39677457	0.94481604	0.14930615	0.28016772	0.94706348	0.18902422	0.18939224	0.96860309	-0.0089213238	0.31918219	0.95646362	-0.19706474	0.42111612	0.93574573	-0.13716307	0.37601047	1.3721156	0.0096302719	0.30868301	1.4237896	0.17673785	0.33368082	1.43187	-0.14675681	0.40460037	1.2963879	0.014326854	0.38498584	1.3593612	-0.055392944	0.34399054	0.46000861	0.048135345	0.31833072	0.45705301	0.1519257	0.41558887	0.65316107	0.11539645	0.28562564	0.10479747	0.10018214	0.26454056	0.097093826	0.17913139	0.26144327	0.28613373	0.17979741	0.20956052	0.049831261	0.13339301	0.42939233	0.054254631	0.13671652
4005	40.04	0.39683145	0.94479364	0.14921878	0.28034109	0.94708923	0.18913942	0.18943726	0.96858569	-0.0088472557	0.31895615	0.95638171	-0.19809232	0.42125357	0.93577161	-0.13717932	0.37611914	1.3719781	0.0095857277	0.30857962	1.4238508	0.17655116	0.3339538	1.4318535	-0.14677336	0.40464896	1.2960985	0.014308346	0.38507242	1.3591046	-0.055407467	0.34368643	0.46000986	0.047992836	0.31828033	0.45702924	0.15184389	0.41550009	0.65308099	0.11513597	0.2855163	0.10478194	0.1001347	0.26451971	0.097082726	0.17911333	0.26147049	0.28610294	0.17980907	0.20953633	0.049793343	0.13340123	0.42936472	0.054266216	0.13669434
4006	40.05	0.39684653	0.94476685	0.14914517	0.28047464	0.94713605	0.18928915	0.18947047	0.9685426	-0.0087844839	0.31867111	0.95630927	-0.19937538	0.42133368	0.93578308	-0.13720238	0.37621393	1.3718573	0.0095273485	0.30851846	1.4239253	0.17636974	0.33425064	1.4318308	-0.14679724	0.40468475	1.2958516	0.014288563	0.38516641	1.3588861	-0.05542942	0.34343973	0.46001801	0.047911846	0.31823007	0.45700595	0.15179349	0.41540198	0.65302216	0.11500848	0.28546716	0.10476583	0.10010483	0.26450562	0.097072456	0.17909697	0.26148526	0.2860737	0.17981798	0.20951872	0.049763428	0.13340704	0.42934534	0.054273819	0.1366774
4007	40.06	0.39681775	0.94473914	0.14909586	0.28054739	0.94719507	0.18944724	0.18947733	0.96849243	-0.0087379189	0.31835608	0.95625464	-0.2007336	0.42134979	0.93577667	-0.13723146	0.37629416	1.3717595	0.0094536123	0.30849347	1.4240026	0.17619826	0.33455566	1.4318016	-0.14683655	0.40470807	1.2956619	0.014265948	0.38526462	1.3587141	-0.055465816	0.34328305	0.46003458	0.047894764	0.31819913	0.45698407	0.15177972	0.41531232	0.65299017	0.11500899	0.28547644	0.10475146	0.10009287	0.26449731	0.09706472	0.17908289	0.26149792	0.28604849	0.17982744	0.20950839	0.049743736	0.13340984	0.42933517	0.054277279	0.13666672
4008	40.07	0.39674414	0.94471643	0.14907713	0.28054315	0.9472558	0.18958595	0.18943945	0.96845459	-0.0087085314	0.31804706	0.95622736	-0.20193298	0.42129953	0.93575507	-0.13726302	0.37636761	1.3716868	0.0093682508	0.30849835	1.4240759	0.17603925	0.33485342	1.431769	-0.14689664	0.40471997	1.2955363	0.014237535	0.38536105	1.3585911	-0.055522682	0.34322916	0.46005698	0.047936012	0.31819742	0.45696414	0.15180296	0.41524234	0.65298889	0.11511469	0.28553134	0.10474142	0.10009561	0.26449292	0.097061401	0.17907123	0.26151776	0.28602911	0.17984138	0.20950504	0.049735218	0.13340974	0.42933395	0.054276867	0.13666245
4009	40.08	0.39662607	0.94470526	0.1490901	0.28045343	0.94730762	0.18968063	0.18934155	0.96844238	-0.0086933556	0.31776575	0.95622992	-0.20279669	0.42118423	0.93572498	-0.13729253	0.37644196	1.3716371	0.0092747908	0.30852826	1.4241431	0.17589307	0.33513135	1.4317356	-0.14698006	0.40472217	1.2954736	0.014199536	0.38544897	1.358515	-0.05560384	0.34327051	0.46007983	0.04802335	0.31822473	0.45694626	0.15185876	0.4151954	0.65301892	0.11529064	0.28561398	0.10473746	0.10010816	0.264491	0.097063568	0.17906201	0.26155087	0.28601624	0.17986319	0.20950769	0.049737507	0.1334073	0.42934042	0.054273067	0.13666391
4010	40.09	0.39646524	0.94471033	0.14913089	0.28027911	0.9473418	0.18971461	0.18917545	0.96846106	-0.0086863966	0.31750879	0.95625543	-0.20326682	0.42100824	0.93569434	-0.13731589	0.37651825	1.3716077	0.009172678	0.30858069	1.4242057	0.17575793	0.33538171	1.4317037	-0.14708655	0.40471625	1.2954655	0.014147998	0.38552319	1.3584789	-0.055710388	0.34338312	0.46009708	0.048139606	0.31827234	0.45693048	0.15193806	0.41516675	0.6530755	0.11549672	0.28570728	0.10473975	0.10012563	0.2644913	0.097070946	0.17905519	0.26159869	0.28600961	0.17989423	0.20951512	0.049749092	0.13340349	0.42935251	0.054266567	0.13666966
4011	40.1	0.3962644	0.94473322	0.14919154	0.28002985	0.94735291	0.18968309	0.18894075	0.96850812	-0.00868009	0.3172525	0.95628973	-0.20339545	0.42077737	0.93567023	-0.13733089	0.37659143	1.3715947	0.0090580168	0.30865594	1.4242671	0.17563098	0.33560205	1.431674	-0.14721239	0.40470392	1.2954984	0.014079506	0.38558154	1.358472	-0.055840645	0.34353223	0.46010413	0.048264843	0.3183266	0.45691724	0.15202808	0.41514487	0.65315094	0.11569482	0.28579755	0.10474709	0.10014374	0.26449451	0.097082436	0.17905038	0.26165771	0.28600781	0.17993321	0.20952588	0.049767578	0.13339925	0.42936804	0.054258259	0.13667769
